# xmcd
#
# Track frame offsets: 
#        150
#        11277
#        37356
#        49421
#        80241
#        96370
#        105023
#        119446
#        150334
#        165227
#        200874
#        220314
#
# Disc length: 3267 seconds
#
# Revision: 0
# Processed by: cddbd v1.5.2PL0 Copyright (c) Steve Scherf et al.
# Submitted via: ExactAudioCopy v1.0b4
#
DISCID=9e0cc10c
DTITLE=Little Mike - How Long
DYEAR=2016
DGENRE=Blues
TTITLE0=Cotton Mouth
TTITLE1=How Long
TTITLE2=Smokin'
TTITLE3=Moanin'
TTITLE4=When My Baby Left
TTITLE5=Slam Hammer
TTITLE6=Whatcha' Gonna Do
TTITLE7=Sam's Blues
TTITLE8=Bad Boy
TTITLE9=Not What Mama Planned
TTITLE10=Tryna' Find My Baby
TTITLE11=Sittin' Here Baby
EXTD=
EXTT0=
EXTT1=
EXTT2=
EXTT3=
EXTT4=
EXTT5=
EXTT6=
EXTT7=
EXTT8=
EXTT9=
EXTT10=
EXTT11=
PLAYORDER=
